HIERARCHY
ROOT joint_Root
{
	OFFSET 0.0 0.0 0.0
	CHANNELS 6 Xposition Yposition Zposition Zrotation Xrotation Yrotation 
	JOINT Hips
	{
		OFFSET -0.726466 93.3139 -2.00062
		CHANNELS 6 Xposition Yposition Zposition Zrotation Xrotation Yrotation 
		JOINT Spine
		{
			OFFSET 15.7357 0.0 0.0
			CHANNELS 6 Xposition Yposition Zposition Zrotation Xrotation Yrotation 
			JOINT Chest
			{
				OFFSET 8.98455 -0.406207 0.0
				CHANNELS 6 Xposition Yposition Zposition Zrotation Xrotation Yrotation 
				JOINT Neck
				{
					OFFSET 16.3773 0.0 0.0
					CHANNELS 6 Xposition Yposition Zposition Zrotation Xrotation Yrotation 
					JOINT Head
					{
						OFFSET 6.45672 0.0 0.0
						CHANNELS 6 Xposition Yposition Zposition Zrotation Xrotation Yrotation 
						End Site
						{
							OFFSET 0.0 0.0 0.0
						}
					}
				}
				JOINT Shoulder_L
				{
					OFFSET 12.9942 -0.242716 4.98039
					CHANNELS 6 Xposition Yposition Zposition Zrotation Xrotation Yrotation 
					JOINT UpperArm_L
					{
						OFFSET 5.34809 0.0 0.0
						CHANNELS 6 Xposition Yposition Zposition Zrotation Xrotation Yrotation 
						JOINT LowerArm_L
						{
							OFFSET 24.3286 1.87007e-05 0.0
							CHANNELS 6 Xposition Yposition Zposition Zrotation Xrotation Yrotation 
							JOINT Hand_L
							{
								OFFSET 22.2916 0.0 0.0
								CHANNELS 6 Xposition Yposition Zposition Zrotation Xrotation Yrotation 
								End Site
								{
									OFFSET 0.0 0.0 0.0
								}
							}
						}
					}
				}
				JOINT Shoulder_R
				{
					OFFSET 12.9945 -0.242716 -4.98039
					CHANNELS 6 Xposition Yposition Zposition Zrotation Xrotation Yrotation 
					JOINT UpperArm_R
					{
						OFFSET -5.34813 0.0 0.0
						CHANNELS 6 Xposition Yposition Zposition Zrotation Xrotation Yrotation 
						JOINT LowerArm_R
						{
							OFFSET -24.3289 0.000322201 0.0
							CHANNELS 6 Xposition Yposition Zposition Zrotation Xrotation Yrotation 
							JOINT Hand_R
							{
								OFFSET -22.2915 -0.000108084 0.0
								CHANNELS 6 Xposition Yposition Zposition Zrotation Xrotation Yrotation 
								End Site
								{
									OFFSET 0.0 0.0 0.0
								}
							}
						}
					}
				}
			}
		}
		JOINT UpperLeg_L
		{
			OFFSET -2.19248 -6.46944 0.0
			CHANNELS 6 Xposition Yposition Zposition Zrotation Xrotation Yrotation 
			JOINT LowerLeg_L
			{
				OFFSET 39.0811 0.0 -1.23785e-05
				CHANNELS 6 Xposition Yposition Zposition Zrotation Xrotation Yrotation 
				JOINT Foot_L
				{
					OFFSET 40.9854 0.0 -1.26872e-05
					CHANNELS 6 Xposition Yposition Zposition Zrotation Xrotation Yrotation 
					JOINT Toes_L
					{
						OFFSET 11.7543 0.0 0.0
						CHANNELS 6 Xposition Yposition Zposition Zrotation Xrotation Yrotation 
						End Site
						{
							OFFSET 0.0 0.0 0.0
						}
					}
				}
			}
		}
		JOINT UpperLeg_R
		{
			OFFSET -2.19251 6.46944 0.0
			CHANNELS 6 Xposition Yposition Zposition Zrotation Xrotation Yrotation 
			JOINT LowerLeg_R
			{
				OFFSET -39.0811 -0.00228153 -0.0401928
				CHANNELS 6 Xposition Yposition Zposition Zrotation Xrotation Yrotation 
				JOINT Foot_R
				{
					OFFSET -40.9854 0.0 0.0
					CHANNELS 6 Xposition Yposition Zposition Zrotation Xrotation Yrotation 
					JOINT Toes_R
					{
						OFFSET -11.7543 0.0 0.0
						CHANNELS 6 Xposition Yposition Zposition Zrotation Xrotation Yrotation 
						End Site
						{
							OFFSET 0.0 0.0 0.0
						}
					}
				}
			}
		}
	}
}
MOTION
Frames:	7
Frame Time:	0.0333333
0.000000 0.000000 0.000000 0.000000 0.000000 -0.000000 -0.756848 89.790000 517.777000 -89.587000 5.028300 -177.996000 15.735700 0.000005 -0.000001 92.160300 82.924000 -92.698600 8.984550 -0.406207 -0.000000 6.378830 0.538407 -1.105390 16.377300 -0.000001 -0.000001 1.849590 0.441335 -0.701767 6.456720 -0.000001 -0.000000 2.326940 -0.616628 -1.796680 12.994200 -0.242716 4.980390 -89.436700 -1.501650 -69.436400 5.348090 -0.000007 -0.000001 -75.743500 36.248500 -5.543100 24.328600 0.000019 0.000005 1.299370 3.727530 -19.240200 22.291600 -0.000001 0.000005 7.064450 5.441440 -4.326070 12.994500 -0.242716 -4.980390 88.832900 4.000380 -73.721100 -5.348130 -0.000001 -0.000004 -70.987400 32.913400 -11.890200 -24.328900 0.000322 -0.000009 3.480910 9.985130 -19.336600 -22.291500 -0.000108 -0.000004 9.125230 5.398670 -2.892800 -2.192480 -6.469440 -0.000000 -179.769000 -6.913560 -13.901500 39.081100 -0.000007 -0.000012 -0.189519 0.251202 37.033100 40.985400 -0.000006 -0.000013 0.906898 -1.460700 -71.516100 11.754300 -0.000000 0.000003 -0.000031 -0.000376 -16.592200 -2.192510 6.469440 -0.000001 172.454000 8.795030 174.804000 -39.081100 -0.002282 -0.040193 0.162159 -0.098027 58.337100 -40.985400 0.000008 0.000006 6.100060 -11.354600 -46.984500 -11.754300 -0.000006 -0.000006 -0.024878 -0.192947 -24.466700
0.000000 0.000000 0.000000 0.000000 0.000000 -0.000000 -1.208450 90.114300 515.377000 -89.023000 3.606350 -177.339000 15.735700 0.000005 -0.000001 86.715100 82.780300 -86.907500 8.984550 -0.406207 -0.000000 6.648840 -0.822922 -0.336704 16.377300 -0.000001 -0.000001 2.034450 -0.075328 -0.807305 6.456720 -0.000001 -0.000000 2.463090 -0.172496 -1.776500 12.994200 -0.242716 4.980390 -89.619400 -1.052220 -70.111800 5.348090 -0.000007 -0.000001 -68.663200 40.384700 -12.631600 24.328600 0.000019 0.000005 1.170160 2.563250 -24.554900 22.291600 -0.000001 0.000005 10.435400 5.478790 -5.684640 12.994500 -0.242716 -4.980390 88.751900 4.053650 -72.870700 -5.348130 -0.000001 -0.000004 -71.078800 31.276600 -9.934880 -24.328900 0.000322 -0.000009 2.993570 9.479240 -17.623100 -22.291500 -0.000108 -0.000004 8.913930 5.380930 -2.327560 -2.192480 -6.469440 -0.000000 -179.424000 -5.363840 -10.491800 39.081100 -0.000007 -0.000012 -0.207942 0.296192 35.071200 40.985400 -0.000006 -0.000013 1.126810 -1.545230 -72.291400 11.754300 -0.000000 0.000003 -0.000037 -0.000434 -16.594500 -2.192510 6.469440 -0.000001 173.787000 8.331050 171.292000 -39.081100 -0.002282 -0.040193 0.169447 -0.086213 62.591900 -40.985400 0.000008 0.000006 3.801040 -5.785810 -49.581600 -11.754300 -0.000006 -0.000006 -0.023233 -0.184580 -24.121000
0.000000 0.000000 0.000000 0.000000 0.000000 -0.000000 -1.503880 90.447400 513.169000 -88.220100 2.533190 -177.253000 15.735700 0.000005 -0.000001 82.852500 82.804300 -82.617500 8.984550 -0.406207 -0.000000 6.519740 -1.787740 0.571280 16.377300 -0.000001 -0.000001 2.235060 -0.510766 -0.925016 6.456720 -0.000001 -0.000000 2.856080 0.165712 -1.775920 12.994200 -0.242716 4.980390 -89.643500 -1.026840 -70.852300 5.348090 -0.000007 -0.000001 -62.066800 40.875900 -19.943100 24.328600 0.000019 0.000005 0.532838 0.995595 -28.183700 22.291600 -0.000001 0.000005 12.523500 5.518750 -7.307110 12.994500 -0.242716 -4.980390 88.754300 3.848050 -72.046500 -5.348130 -0.000001 -0.000004 -71.096600 29.289500 -8.065520 -24.328900 0.000322 -0.000009 2.841960 9.861870 -16.169600 -22.291500 -0.000108 -0.000004 9.182570 5.377700 -2.228390 -2.192480 -6.469440 -0.000000 -178.732000 -4.929130 -7.763160 39.081100 -0.000007 -0.000012 -0.191251 0.295658 32.897800 40.985400 -0.000006 -0.000013 1.407020 -1.103760 -72.751500 11.754300 -0.000000 0.000003 -0.000083 -0.000873 -16.611200 -2.192510 6.469440 -0.000001 175.757000 8.745980 167.355000 -39.081100 -0.002282 -0.040193 0.149975 -0.072097 63.843500 -40.985400 0.000008 0.000006 2.836340 -3.881070 -51.913200 -11.754300 -0.000006 -0.000006 -0.022510 -0.180816 -23.965600
0.000000 0.000000 0.000000 0.000000 0.000000 -0.000000 -1.738110 90.775900 511.067000 -87.373600 1.805280 -177.331000 15.735700 0.000005 -0.000001 79.658300 82.865000 -79.013600 8.984550 -0.406207 -0.000000 6.291850 -2.562670 1.428990 16.377300 -0.000001 -0.000001 2.512270 -0.809606 -1.096020 6.456720 -0.000001 -0.000000 3.258290 0.591092 -1.572320 12.994200 -0.242716 4.980390 -89.528200 -1.414030 -71.546000 5.348090 -0.000007 -0.000001 -58.068700 37.918800 -25.643600 24.328600 0.000019 0.000005 0.111038 0.187742 -30.669900 22.291600 -0.000001 0.000005 11.899600 5.528090 -7.710430 12.994500 -0.242716 -4.980390 88.806500 3.550220 -71.404200 -5.348130 -0.000001 -0.000004 -70.970000 27.253900 -6.540790 -24.328900 0.000322 -0.000009 2.655030 10.065100 -14.865800 -22.291500 -0.000108 -0.000004 9.918190 5.358370 -1.631940 -2.192480 -6.469440 -0.000000 -177.835000 -5.037920 -5.034870 39.081100 -0.000007 -0.000012 -0.187104 0.319514 30.353100 40.985400 -0.000006 -0.000013 1.695630 -0.295352 -73.015900 11.754300 -0.000000 0.000003 -0.000075 -0.000806 -16.608600 -2.192510 6.469440 -0.000001 177.948000 9.698610 163.677000 -39.081100 -0.002282 -0.040193 0.116174 -0.059520 62.220600 -40.985400 0.000008 0.000006 2.795640 -4.726220 -54.056200 -11.754300 -0.000006 -0.000006 -0.023023 -0.183493 -24.076100
0.000000 0.000000 0.000000 0.000000 0.000000 -0.000000 -1.905610 91.042900 508.980000 -86.512100 1.005700 -177.339000 15.735700 0.000005 -0.000001 76.626500 82.811200 -75.568800 8.984550 -0.406207 -0.000000 6.261450 -3.329910 2.295770 16.377300 -0.000001 -0.000001 2.745830 -0.945599 -1.101960 6.456720 -0.000001 -0.000000 3.515820 0.963187 -1.495410 12.994200 -0.242716 4.980390 -89.401400 -1.854450 -72.106900 5.348090 -0.000007 -0.000001 -55.703900 33.893700 -30.336800 24.328600 0.000019 0.000005 -0.164172 -0.261803 -32.087300 22.291600 -0.000001 0.000005 11.782300 5.519380 -7.335500 12.994500 -0.242716 -4.980390 88.860200 3.285630 -70.856700 -5.348130 -0.000001 -0.000004 -70.557500 25.275000 -5.638210 -24.328900 0.000322 -0.000009 2.487750 10.406000 -13.530600 -22.291500 -0.000108 -0.000004 10.783800 5.343290 -1.177390 -2.192480 -6.469440 -0.000000 -176.847000 -5.121520 -2.206840 39.081100 -0.000007 -0.000012 -0.166788 0.318192 27.662600 40.985400 -0.000006 -0.000013 1.907120 0.530638 -73.190500 11.754300 -0.000000 0.000003 -0.000138 -0.001349 -16.629000 -2.192510 6.469440 -0.000001 -179.731000 11.149100 160.939000 -39.081100 -0.002282 -0.040193 0.081224 -0.049336 57.689600 -40.985400 0.000008 0.000006 2.875100 -6.350670 -56.085200 -11.754300 -0.000006 -0.000006 -0.023441 -0.185653 -24.165300
0.000000 0.000000 0.000000 0.000000 0.000000 -0.000000 -2.026010 91.203100 507.015000 -85.765800 0.329536 -177.692000 15.735700 0.000005 -0.000001 74.152000 82.847800 -72.755400 8.984550 -0.406207 -0.000000 6.054940 -3.916660 2.997990 16.377300 -0.000001 -0.000001 2.926870 -1.068130 -0.930827 6.456720 -0.000001 -0.000000 3.727210 1.248910 -1.380380 12.994200 -0.242716 4.980390 -89.292000 -2.213840 -72.260900 5.348090 -0.000007 -0.000001 -54.029700 29.968300 -34.848500 24.328600 0.000019 0.000005 -0.341888 -0.536508 -32.511100 22.291600 -0.000001 0.000005 12.285900 5.516410 -7.210370 12.994500 -0.242716 -4.980390 88.820500 3.303520 -70.339000 -5.348130 -0.000001 -0.000004 -69.803200 23.580400 -5.008470 -24.328900 0.000322 -0.000009 2.371460 10.765900 -12.506000 -22.291500 -0.000108 -0.000004 11.393900 5.330460 -0.799118 -2.192480 -6.469440 -0.000000 -175.885000 -5.372660 0.036558 39.081100 -0.000007 -0.000012 -0.172908 0.367810 25.178500 40.985400 -0.000006 -0.000013 2.048760 1.424610 -73.344400 11.754300 -0.000000 0.000003 -0.000054 -0.000609 -16.601200 -2.192510 6.469440 -0.000001 -177.252000 12.678700 158.542000 -39.081100 -0.002282 -0.040193 0.049745 -0.038000 50.744400 -40.985400 0.000008 0.000006 3.397980 -7.356960 -56.788900 -11.754300 -0.000006 -0.000006 -0.024319 -0.190136 -24.350500
0.000000 0.000000 0.000000 0.000000 0.000000 -0.000000 -2.077120 91.201500 505.049000 -85.355500 -0.217328 -178.055000 15.735700 0.000005 -0.000001 71.901300 82.860000 -70.290000 8.984550 -0.406207 -0.000000 5.885900 -4.451160 3.449150 16.377300 -0.000001 -0.000001 3.012810 -1.174760 -0.827785 6.456720 -0.000001 -0.000000 3.851220 1.482550 -1.286700 12.994200 -0.242716 4.980390 -89.224000 -2.472620 -72.570800 5.348090 -0.000007 -0.000001 -53.153900 26.215900 -38.193800 24.328600 0.000019 0.000005 -0.219134 -0.340414 -32.781000 22.291600 -0.000001 0.000005 13.696000 5.515860 -7.191040 12.994500 -0.242716 -4.980390 88.741600 3.441010 -69.898200 -5.348130 -0.000001 -0.000004 -68.994200 22.097900 -4.633610 -24.328900 0.000322 -0.000009 2.315020 11.160400 -11.802500 -22.291500 -0.000108 -0.000004 11.837100 5.323740 -0.603771 -2.192480 -6.469440 -0.000000 -175.292000 -5.587800 2.254640 39.081100 -0.000007 -0.000012 -0.122272 0.290127 22.852800 40.985400 -0.000006 -0.000013 2.158870 2.281720 -73.651900 11.754300 -0.000000 0.000003 -0.000167 -0.001594 -16.638000 -2.192510 6.469440 -0.000001 -174.996000 14.463200 156.778000 -39.081100 -0.002282 -0.040193 0.027977 -0.027199 42.248800 -40.985400 0.000008 0.000006 3.481590 -6.780030 -56.104800 -11.754300 -0.000006 -0.000006 -0.024420 -0.190643 -24.371400
